HIERARCHY
ROOT Hips
{
	OFFSET -0.001795 -0.223333 0.028219
	CHANNELS 6 Xposition Yposition Zposition Zrotation Yrotation Xrotation
	JOINT LeftUpLeg
	{
		OFFSET 0.069520 -0.091406 -0.006815
		CHANNELS 3 Zrotation Yrotation Xrotation
		JOINT LeftLeg
		{
			OFFSET 0.034277 -0.375199 -0.004496
			CHANNELS 3 Zrotation Yrotation Xrotation
			JOINT LeftFoot
			{
				OFFSET -0.013596 -0.397961 -0.043693
				CHANNELS 3 Zrotation Yrotation Xrotation
				JOINT LeftToe
				{
					OFFSET 0.026358 -0.055791 0.119288
					CHANNELS 3 Zrotation Yrotation Xrotation
					End Site
					{
						OFFSET 0.000000 0.000000 0.000000
					}
				}
			}
		}
	}
	JOINT RightUpLeg
	{
		OFFSET -0.067670 -0.090522 -0.004320
		CHANNELS 3 Zrotation Yrotation Xrotation
		JOINT RightLeg
		{
			OFFSET -0.038290 -0.382569 -0.008850
			CHANNELS 3 Zrotation Yrotation Xrotation
			JOINT RightFoot
			{
				OFFSET 0.015774 -0.398415 -0.042312
				CHANNELS 3 Zrotation Yrotation Xrotation
				JOINT RightToe
				{
					OFFSET -0.025372 -0.048144 0.123348
					CHANNELS 3 Zrotation Yrotation Xrotation
					End Site
					{
						OFFSET 0.000000 0.000000 0.000000
					}
				}
			}
		}
	}
	JOINT Spine
	{
		OFFSET -0.002533 0.108963 -0.026696
		CHANNELS 3 Zrotation Yrotation Xrotation
		JOINT Spine1
		{
			OFFSET 0.005487 0.135180 0.001092
			CHANNELS 3 Zrotation Yrotation Xrotation
			JOINT Spine2
			{
				OFFSET 0.001457 0.052922 0.025425
				CHANNELS 3 Zrotation Yrotation Xrotation
				JOINT Neck
				{
					OFFSET -0.002778 0.213870 -0.042857
					CHANNELS 3 Zrotation Yrotation Xrotation
					JOINT Head
					{
						OFFSET 0.005152 0.064970 0.051349
						CHANNELS 3 Zrotation Yrotation Xrotation
						End Site
						{
							OFFSET 0.000000 0.000000 0.000000
						}
					}
				}
				JOINT LeftShoulder
				{
					OFFSET 0.078845 0.121749 -0.034090
					CHANNELS 3 Zrotation Yrotation Xrotation
					JOINT LeftArm
					{
						OFFSET 0.090977 0.030469 -0.008868
						CHANNELS 3 Zrotation Yrotation Xrotation
						JOINT LeftForeArm
						{
							OFFSET 0.259612 -0.012772 -0.027456
							CHANNELS 3 Zrotation Yrotation Xrotation
							JOINT LeftHand
							{
								OFFSET 0.249234 0.008986 -0.001171
								CHANNELS 3 Zrotation Yrotation Xrotation
								End Site
								{
									OFFSET 0.000000 0.000000 0.000000
								}
							}
						}
					}
				}
				JOINT RightShoulder
				{
					OFFSET -0.081759 0.118833 -0.038615
					CHANNELS 3 Zrotation Yrotation Xrotation
					JOINT RightArm
					{
						OFFSET -0.096012 0.032551 -0.009143
						CHANNELS 3 Zrotation Yrotation Xrotation
						JOINT RightForeArm
						{
							OFFSET -0.253742 -0.013329 -0.021401
							CHANNELS 3 Zrotation Yrotation Xrotation
							JOINT RightHand
							{
								OFFSET -0.255298 0.007772 -0.005559
								CHANNELS 3 Zrotation Yrotation Xrotation
								End Site
								{
									OFFSET 0.000000 0.000000 0.000000
								}
							}
						}
					}
				}
			}
		}
	}
}
MOTION
Frames: 8
Frame Time: 0.050000
-0.601949 0.252889 0.865394 2.893997 -2.334108 -71.818694 -1.339512 -2.906221 -32.520992 5.853470 -16.113669 105.335415 12.009980 -2.781080 -62.447186 0.000000 0.000000 0.000000 -12.947016 0.547123 -51.186933 37.291105 -51.915564 107.255328 -19.369633 -39.671701 9.783603 0.000000 0.000000 0.000000 5.149397 12.435823 -84.345246 0.718226 -0.984696 11.154670 -10.670268 -11.284349 73.328992 -3.364137 0.882373 4.858582 0.000000 0.000000 0.000000 -16.937119 -7.951679 8.628419 -63.079103 -9.915439 -13.448751 -133.230603 -74.495303 148.558811 0.000000 0.000000 0.000000 1.616485 12.067762 4.226858 43.299731 29.326075 -4.904089 -96.045707 57.131854 -55.445110 0.000000 0.000000 0.000000
-0.603105 0.254466 0.867742 3.656461 -2.000769 -71.202054 -1.832151 -2.872701 -29.670509 6.804696 -15.025781 98.726785 12.538894 -3.184799 -64.796335 0.000000 0.000000 0.000000 -13.449249 0.083372 -46.743614 65.980637 -56.739275 74.621797 -27.653953 -52.734827 8.452218 0.000000 0.000000 0.000000 6.652198 13.964789 -84.268753 0.263948 -0.719126 11.026408 -12.714201 -12.579959 71.971043 -2.994670 -0.276641 2.131096 0.000000 0.000000 0.000000 -20.331787 -6.582195 9.315369 -61.674599 -7.954731 -14.307522 -136.854031 -70.957086 150.757685 0.000000 0.000000 0.000000 -1.492715 9.240247 2.884022 47.892143 28.397702 -4.757437 -110.038248 61.954269 -74.399823 0.000000 0.000000 0.000000
-0.606000 0.257427 0.872009 3.792908 -2.572923 -71.108563 -2.485711 -2.987322 -28.115026 7.012710 -13.219175 94.972178 12.041149 -4.057032 -62.159460 0.000000 0.000000 0.000000 -10.218041 1.418948 -42.214207 83.667580 -49.455286 48.833137 -34.745473 -65.910526 2.949780 0.000000 0.000000 0.000000 6.568797 14.109783 -82.707579 1.920738 -1.413794 8.169872 -16.999089 -15.520706 70.712432 -4.442557 0.215305 -3.391728 0.000000 0.000000 0.000000 -16.626215 -1.107457 6.236301 -66.790640 -4.296315 -14.576368 -121.827179 -66.019309 130.467188 0.000000 0.000000 0.000000 -12.693244 7.288486 2.723965 58.643163 25.637288 -6.313497 -127.673706 64.202263 -99.169173 0.000000 0.000000 0.000000
-0.609472 0.261979 0.876469 4.050016 -3.514847 -71.264876 -3.425996 -2.783993 -24.619961 11.127650 -16.004163 88.385296 11.872155 -8.625636 -60.549132 0.000000 0.000000 0.000000 -6.449161 2.748766 -35.947262 87.782101 -41.856191 37.077731 -42.191339 -70.193544 7.975510 0.000000 0.000000 0.000000 6.417730 14.623258 -81.782206 1.503163 -0.949710 4.391092 -16.291149 -17.404714 72.550640 -2.982955 -2.240810 -7.533312 0.000000 0.000000 0.000000 -19.808197 -5.562936 10.391625 -63.858227 -2.962809 -15.507559 -132.172050 -63.048347 140.599451 0.000000 0.000000 0.000000 -13.686781 1.470005 1.227190 56.426841 26.363702 -5.979041 -130.569747 63.274177 -104.591989 0.000000 0.000000 0.000000
-0.611626 0.270225 0.879644 4.702759 -0.982650 -70.605786 -8.588764 -4.291786 -22.085992 20.497461 -24.691728 82.642836 12.601201 -13.004826 -62.796573 0.000000 0.000000 0.000000 -7.451119 1.475228 -31.720025 90.926639 -38.334388 30.956757 -38.012233 -66.993464 6.191293 0.000000 0.000000 0.000000 7.037919 13.737272 -83.364100 0.062723 -0.320695 6.385029 -16.665529 -17.799077 70.529726 -6.246798 1.054103 -9.228060 0.000000 0.000000 0.000000 -18.826866 2.509233 5.963304 -66.787507 -0.580608 -16.253933 -123.507191 -57.651818 127.777744 0.000000 0.000000 0.000000 -21.619132 1.297082 2.567577 64.428812 24.336772 -8.151999 -139.603204 59.952864 -111.602611 0.000000 0.000000 0.000000
-0.610735 0.276003 0.880745 5.113329 -1.610530 -70.113414 -11.098506 -4.792405 -21.614065 36.562164 -32.414657 68.123220 15.990227 -22.540719 -70.507701 0.000000 0.000000 0.000000 -4.826207 2.144354 -27.605928 85.697504 -34.962647 30.661596 -27.228303 -68.410104 -13.232714 0.000000 0.000000 0.000000 8.659709 15.727933 -82.756851 -0.053001 -0.123048 3.175628 -17.722462 -17.382866 70.851587 -3.749195 -1.344021 -8.493126 0.000000 0.000000 0.000000 -22.268124 -2.122192 9.939285 -64.128448 -2.820744 -15.590212 -129.011670 -59.188492 135.049337 0.000000 0.000000 0.000000 -24.541793 -2.772219 1.978803 67.822260 19.471234 -10.768401 -145.713833 57.340544 -116.216079 0.000000 0.000000 0.000000
-0.606937 0.280131 0.880398 6.848758 -0.617708 -69.904608 -13.234607 -5.639623 -22.738885 49.946172 -35.356659 55.792237 19.671604 -27.654123 -77.696140 0.000000 0.000000 0.000000 -7.033719 1.095295 -24.093564 80.237428 -32.205138 31.953252 -23.766796 -64.519930 -15.877534 0.000000 0.000000 0.000000 12.990068 18.818366 -79.547773 -1.067234 0.451132 0.800743 -21.950851 -18.399850 71.357746 -5.963312 -0.198780 -13.375030 0.000000 0.000000 0.000000 -27.338303 -0.388519 11.932932 -63.464835 -7.937787 -13.727557 -129.901613 -59.953161 140.912871 0.000000 0.000000 0.000000 -30.567324 -4.153431 3.130293 65.317955 16.572602 -13.254199 -149.297124 54.618846 -122.284997 0.000000 0.000000 0.000000
-0.601546 0.283585 0.880543 7.851130 0.895211 -69.244749 -15.083610 -6.791386 -25.422954 55.639809 -35.436046 49.373715 23.120342 -31.102209 -83.540226 0.000000 0.000000 0.000000 -10.230822 -0.058628 -20.315071 76.453983 -31.095600 33.356218 -19.733788 -58.988329 -19.725822 0.000000 0.000000 0.000000 16.058773 20.104075 -77.385402 -1.206885 0.541506 0.042081 -25.686387 -19.876430 71.459332 -7.100195 -0.001252 -16.735990 0.000000 0.000000 0.000000 -32.114347 -3.363529 18.037249 -61.859170 -16.784983 -10.274889 -137.362838 -70.446441 162.013048 0.000000 0.000000 0.000000 -34.054273 -5.089582 4.224755 62.987029 17.437562 -13.720699 -145.009771 56.564936 -121.228298 0.000000 0.000000 0.000000
